<svg xmlns="http://www.w3.org/2000/svg" width="811" height="268" fill="none"><path fill="#262625" d="M687.559 147.702v-4.568l4.35-1.523c2.611-.725 4.423-1.958 5.438-3.698 1.016-1.885 1.596-4.423 1.741-7.614V20.882c-.145-3.045-.653-5.365-1.523-6.96-.87-1.74-2.683-3.046-5.438-3.916l-4.568-1.523V3.915h103.543l1.523 34.805h-6.091l-8.701-19.578c-1.16-2.755-2.465-4.858-3.915-6.308-1.451-1.595-3.626-2.393-6.526-2.393h-36.98a1727.87 1727.87 0 0 0-.218 27.844V70.26h21.536c2.9 0 5.075-.725 6.526-2.175 1.595-1.595 3.045-3.698 4.35-6.308l3.698-8.266h4.786v40.242h-4.786l-3.915-8.266c-1.161-2.61-2.466-4.713-3.916-6.308-1.45-1.595-3.625-2.393-6.526-2.393h-21.753v47.204c.145 5.801.218 11.529.218 17.185h41.765c2.901 0 5.149-.725 6.744-2.175 1.595-1.596 2.9-3.771 3.915-6.526l8.049-19.578h6.091l-1.523 34.805H687.559Zm-65.402 3.698c-7.976 0-16.097-1.015-24.364-3.045-8.121-1.885-14.937-4.423-20.447-7.614l1.305-30.236h6.308l6.744 15.009c2.03 4.206 4.133 7.686 6.308 10.442 2.175 2.755 5.076 4.858 8.701 6.308 2.465 1.015 4.786 1.74 6.961 2.175 2.32.29 4.858.435 7.614.435 8.846 0 15.807-2.247 20.882-6.743 5.221-4.641 7.831-10.732 7.831-18.273 0-6.815-1.812-12.181-5.438-16.097-3.48-3.915-9.136-7.686-16.967-11.311l-8.919-3.916c-12.181-5.365-21.825-11.601-28.931-18.707-6.961-7.106-10.442-16.532-10.442-28.279 0-8.701 2.176-16.097 6.526-22.188 4.496-6.236 10.659-11.021 18.49-14.357C612.15 1.668 621.287 0 631.728 0c7.686 0 14.864 1.015 21.535 3.045 6.816 2.03 12.762 4.786 17.838 8.267l-1.523 26.973h-6.308l-8.049-16.315c-2.32-4.785-4.568-8.193-6.743-10.223-2.031-2.176-4.568-3.553-7.614-4.133a86.06 86.06 0 0 0-4.568-.653c-1.16-.145-2.755-.218-4.786-.218-7.106 0-13.269 2.103-18.49 6.309-5.075 4.06-7.613 9.716-7.613 16.967 0 6.96 1.958 12.617 5.873 16.967 3.916 4.35 9.571 8.194 16.967 11.53l9.789 4.132c14.067 6.091 24.146 12.617 30.237 19.578 6.091 6.816 9.136 15.59 9.136 26.321 0 12.762-4.858 23.131-14.574 31.107-9.572 7.831-23.131 11.746-40.678 11.746Zm-123.982 0c-8.846 0-17.33-1.595-25.451-4.785-8.121-3.191-15.444-7.904-21.97-14.14-6.381-6.381-11.457-14.284-15.227-23.71-3.771-9.427-5.656-20.448-5.656-33.065 0-12.327 1.885-23.203 5.656-32.63 3.77-9.425 8.846-17.33 15.227-23.71 6.526-6.38 13.849-11.166 21.97-14.357C480.99 1.668 489.474 0 498.175 0s17.112 1.595 25.234 4.786c8.266 3.19 15.589 7.976 21.97 14.357 6.381 6.235 11.457 14.066 15.227 23.493 3.771 9.426 5.656 20.447 5.656 33.064 0 12.327-1.885 23.203-5.656 32.629-3.77 9.427-8.846 17.33-15.227 23.711s-13.632 11.239-21.753 14.575c-8.121 3.19-16.605 4.785-25.451 4.785Zm0-6.526c8.266 0 14.937-2.102 20.013-6.308 5.076-4.351 8.774-11.602 11.094-21.753 2.32-10.151 3.48-23.856 3.48-41.113 0-17.257-1.16-30.889-3.48-40.895-2.32-10.152-6.018-17.33-11.094-21.536-5.076-4.35-11.747-6.526-20.013-6.526-8.121 0-14.792 2.176-20.012 6.526-5.076 4.206-8.774 11.384-11.094 21.536-2.321 10.006-3.481 23.638-3.481 40.895s1.16 30.962 3.481 41.113c2.32 10.151 6.018 17.402 11.094 21.753 5.22 4.206 11.891 6.308 20.012 6.308ZM298.6 147.702v-4.568l4.568-1.306c2.9-.87 4.713-2.102 5.438-3.698.87-1.74 1.305-4.133 1.305-7.178.145-8.411.218-16.822.218-25.233V46.116c0-8.411-.073-16.823-.218-25.234 0-3.045-.362-5.365-1.088-6.96-.725-1.74-2.537-3.046-5.438-3.916L298.6 8.483V3.915h60.908c16.967 0 30.019 3.263 39.155 9.789 9.281 6.38 13.922 15.372 13.922 26.973 0 6.381-2.538 12.835-7.614 19.36-4.93 6.526-12.544 11.53-22.84 15.01l29.584 57.645c2.465 4.786 6.308 8.049 11.529 9.789l4.133.87v4.351h-38.503l-32.412-67.87H340.8v27.844c0 8.266.073 16.025.218 23.276 0 2.9.435 5.221 1.305 6.961 1.015 1.74 2.9 2.973 5.656 3.698l5.22 1.523v4.568H298.6Zm42.2-74.178h11.747c10.296 0 17.837-2.61 22.623-7.83 4.785-5.221 7.178-13.198 7.178-23.929 0-10.731-2.32-18.635-6.961-23.71-4.495-5.221-11.819-7.832-21.97-7.832h-12.399c0 5.656-.073 11.457-.218 17.403v45.898ZM308.3 243v-70.5h5.4l29.4 66.4h-2.9l29.5-66.4h5.3V243h-5.7v-63.2h2.7L343.9 243h-4.5l-28.1-63.2h2.7V243h-5.7Zm96.254 0v-70.5h43.8v5.3h-37.8v26.8h35.6v5.3h-35.6v27.8h37.8v5.3h-43.8Zm69.496 0v-70.5h22.3c7.733 0 14.267 1.367 19.6 4.1 5.333 2.667 9.367 6.633 12.1 11.9 2.8 5.2 4.2 11.6 4.2 19.2s-1.4 14.033-4.2 19.3c-2.733 5.267-6.767 9.267-12.1 12-5.333 2.667-11.867 4-19.6 4h-22.3Zm6.2-5.5h15.6c10.067 0 17.567-2.467 22.5-7.4 4.933-5 7.4-12.467 7.4-22.4 0-10-2.467-17.467-7.4-22.4s-12.433-7.4-22.5-7.4h-15.6v59.6Zm78.823 5.5v-70.5h6.2V243h-6.2Zm65.407.8c-6.933 0-12.833-1.433-17.7-4.3-4.8-2.933-8.466-7.1-11-12.5-2.533-5.4-3.8-11.833-3.8-19.3 0-7.467 1.267-13.867 3.8-19.2 2.534-5.4 6.2-9.533 11-12.4 4.867-2.933 10.767-4.4 17.7-4.4 5.067 0 9.567.8 13.5 2.4a28.316 28.316 0 0 1 10.3 6.9l-2.6 5c-3.266-3-6.533-5.167-9.8-6.5-3.266-1.4-7.066-2.1-11.4-2.1-8.466 0-14.9 2.667-19.3 8-4.4 5.267-6.6 12.7-6.6 22.3 0 9.6 2.2 17.067 6.6 22.4 4.4 5.333 10.834 8 19.3 8 4.334 0 8.134-.667 11.4-2 3.267-1.4 6.534-3.6 9.8-6.6l2.6 5c-2.933 3.067-6.4 5.4-10.4 7-3.933 1.533-8.4 2.3-13.4 2.3Zm41.104-.8 30.7-70.5h5.6l31.2 70.5h-6.5l-8.8-20.3 2.9 1.5h-43.4l3.4-1.5-8.6 20.3h-6.5Zm33.4-63-17.1 40.1-2.3-1.2h38.8l-1.7 1.2-17.5-40.1h-.2Zm57.054 63v-70.5h6.2v65h36.7v5.5h-42.9Z"/><path stroke="#0AB2AC" stroke-width="22" d="M147.216 228.987C189.441 215.411 220 175.789 220 129.025V24.545C220 17.065 213.94 11 206.464 11c-34.059 0-63.765 18.648-79.479 46.296m20.231 171.691c-10.124 3.255-20.918 5.013-32.123 5.013C57.604 234 11 187.365 11 129.838V27.275C11 18.287 18.282 11 27.265 11H37.43c36.963 0 69.659 18.279 89.555 46.296m20.231 171.691V120.858c0-23.686-7.491-45.62-20.231-63.562"/></svg>